<svg xmlns="http://www.w3.org/2000/svg" width="256" height="256" viewBox="0 0 100 100"><rect width="100" height="100" rx="20" fill="#212b43"></rect><path fill="#fff" d="M15.44 78.13L15.44 22.15L8.15 21.07L8.15 16.56L33.98 16.56L33.98 21.07L25.07 22.15L25.07 78.13L48.29 77.31L53.60 62.20L59.09 63.01L55.94 83.44L7.97 83.44L7.97 79.03L15.44 78.13ZM73.94 78.13L73.94 22.15L65.57 21.07L65.57 16.56L92.03 16.56L92.03 21.07L83.66 22.15L83.66 78.13L92.03 79.12L92.03 83.44L65.66 83.44L65.66 79.03L73.94 78.13Z"></path></svg>